<svg width="31" height="25" viewBox="0 0 31 25" fill="none" xmlns="http://www.w3.org/2000/svg">
<path d="M1 4.28571C1 3.41429 1.33948 2.57855 1.94377 1.96236C2.54805 1.34617 3.36764 1 4.22222 1H26.7778C27.6324 1 28.452 1.34617 29.0562 1.96236C29.6605 2.57855 30 3.41429 30 4.28571V20.7143C30 21.5857 29.6605 22.4214 29.0562 23.0376C28.452 23.6538 27.6324 24 26.7778 24H4.22222C3.36764 24 2.54805 23.6538 1.94377 23.0376C1.33948 22.4214 1 21.5857 1 20.7143V4.28571Z" fill="#FFFFFF"/>
<path d="M1 4.28571L15.5 14.1428L30 4.28571" fill="#E2AA77"/>
<path d="M1 4.28571C1 3.41429 1.33948 2.57855 1.94377 1.96236C2.54805 1.34617 3.36764 1 4.22222 1H26.7778C27.6324 1 28.452 1.34617 29.0562 1.96236C29.6605 2.57855 30 3.41429 30 4.28571M1 4.28571V20.7143C1 21.5857 1.33948 22.4214 1.94377 23.0376C2.54805 23.6538 3.36764 24 4.22222 24H26.7778C27.6324 24 28.452 23.6538 29.0562 23.0376C29.6605 22.4214 30 21.5857 30 20.7143V4.28571M1 4.28571L15.5 14.1428L30 4.28571" stroke="white" stroke-width="2" stroke-linecap="round" stroke-linejoin="round"/>
</svg>
